<svg xmlns="http://www.w3.org/2000/svg" viewBox="0 0 24 24"><path fill="#003087" d="M7.076 21.337H2.47a.641.641 0 0 1-.635-.545L0 4.604A.64.64 0 0 1 .636 4h5.235c1.644 0 2.964.423 3.929 1.259.926.8 1.393 1.9 1.393 3.276 0 1.218-.325 2.244-.968 3.051-.638.8-1.504 1.375-2.57 1.71-.538.168-1.124.252-1.74.252h-.644l-.215 1.789z"/><path fill="#009CDE" d="M20.067 8.479c.492.88.556 2.014.3 3.327-.74 3.806-3.276 5.12-6.514 5.12h-.5a.805.805 0 0 0-.794.677l-.04.22-.63 3.993-.028.15a.802.802 0 0 1-.793.679H7.72a.483.483 0 0 1-.477-.558L7.418 18h.002l1.145-7.267.042-.261a.806.806 0 0 1 .794-.677h.45c2.948 0 5.254-1.2 5.94-4.683.24-1.2.114-2.18-.39-2.93z"/></svg>
